<svg width="94" height="142" viewBox="0 0 94 142" fill="none" xmlns="http://www.w3.org/2000/svg">
<path d="M70.6017 47.3984C76.7377 47.2142 82.5607 44.6473 86.8359 40.2419C91.1111 35.8365 93.5022 29.9391 93.5022 23.8003C93.5022 17.6615 91.1111 11.7641 86.8359 7.35866C82.5607 2.95325 76.7377 0.386301 70.6017 0.202148H23.3983C17.2623 0.386301 11.4393 2.95325 7.16409 7.35866C2.88891 11.7641 0.497785 17.6615 0.497785 23.8003C0.497785 29.9391 2.88891 35.8365 7.16409 40.2419C11.4393 44.6473 17.2623 47.2142 23.3983 47.3984C17.2086 47.5056 11.3087 50.0397 6.96938 54.4549C2.63003 58.8701 0.198486 64.813 0.198486 71.0036C0.198486 77.1942 2.63003 83.1371 6.96938 87.5523C11.3087 91.9675 17.2086 94.5016 23.3983 94.6088C17.2389 94.7597 11.3825 97.3126 7.07947 101.722C2.77647 106.132 0.367846 112.049 0.367846 118.21C0.367846 124.372 2.77647 130.289 7.07947 134.699C11.3825 139.108 17.2389 141.661 23.3983 141.812C29.6579 141.808 35.66 139.32 40.0856 134.893C44.5111 130.466 46.9981 124.463 47 118.203V47.3984H70.6017Z" fill="black"/>
</svg>
