<svg width="90" height="90" viewBox="0 0 90 90" fill="none" xmlns="http://www.w3.org/2000/svg">
<path fill-rule="evenodd" clip-rule="evenodd" d="M5.625 45C5.625 55.4429 9.77343 65.4581 17.1577 72.8423C24.5419 80.2266 34.5571 84.375 45 84.375C55.4429 84.375 65.4581 80.2266 72.8423 72.8423C80.2266 65.4581 84.375 55.4429 84.375 45C84.375 34.5571 80.2266 24.5419 72.8423 17.1577C65.4581 9.77343 55.4429 5.625 45 5.625C34.5571 5.625 24.5419 9.77343 17.1577 17.1577C9.77343 24.5419 5.625 34.5571 5.625 45ZM90 45C90 56.9347 85.2589 68.3807 76.8198 76.8198C68.3807 85.2589 56.9347 90 45 90C33.0653 90 21.6193 85.2589 13.1802 76.8198C4.74106 68.3807 0 56.9347 0 45C0 33.0653 4.74106 21.6193 13.1802 13.1802C21.6193 4.74106 33.0653 0 45 0C56.9347 0 68.3807 4.74106 76.8198 13.1802C85.2589 21.6193 90 33.0653 90 45ZM47.8125 25.3125C47.8125 24.5666 47.5162 23.8512 46.9887 23.3238C46.4613 22.7963 45.7459 22.5 45 22.5C44.2541 22.5 43.5387 22.7963 43.0113 23.3238C42.4838 23.8512 42.1875 24.5666 42.1875 25.3125V57.8981L30.1163 45.8213C29.5881 45.2931 28.8719 44.9964 28.125 44.9964C27.3781 44.9964 26.6619 45.2931 26.1337 45.8213C25.6056 46.3494 25.3089 47.0656 25.3089 47.8125C25.3089 48.5594 25.6056 49.2756 26.1337 49.8037L43.0088 66.6787C43.27 66.9407 43.5804 67.1485 43.9221 67.2903C44.2638 67.432 44.6301 67.505 45 67.505C45.3699 67.505 45.7362 67.432 46.0779 67.2903C46.4196 67.1485 46.73 66.9407 46.9912 66.6787L63.8662 49.8037C64.3944 49.2756 64.691 48.5594 64.691 47.8125C64.691 47.0656 64.3944 46.3494 63.8662 45.8213C63.3381 45.2931 62.6219 44.9964 61.875 44.9964C61.1281 44.9964 60.4119 45.2931 59.8838 45.8213L47.8125 57.8981V25.3125Z" fill="black"/>
</svg>
