<svg width="46" height="46" viewBox="0 0 46 46" fill="none" xmlns="http://www.w3.org/2000/svg">
<path fill-rule="evenodd" clip-rule="evenodd" d="M13.552 0.220752C15.9958 0.108252 16.7749 0.083252 22.9999 0.083252C29.2249 0.083252 30.0041 0.110335 32.4458 0.220752C34.8874 0.331169 36.5541 0.720752 38.0124 1.28534C39.5395 1.86242 40.9249 2.7645 42.0708 3.93117C43.2374 5.07492 44.1374 6.45825 44.7124 7.98742C45.2791 9.44575 45.6666 11.1124 45.7791 13.5499C45.8916 15.9978 45.9166 16.777 45.9166 22.9999C45.9166 29.2249 45.8895 30.0041 45.7791 32.4478C45.6687 34.8853 45.2791 36.552 44.7124 38.0103C44.1374 39.5397 43.2359 40.9253 42.0708 42.0708C40.9249 43.2374 39.5395 44.1374 38.0124 44.7124C36.5541 45.2791 34.8874 45.6666 32.4499 45.7791C30.0041 45.8916 29.2249 45.9166 22.9999 45.9166C16.7749 45.9166 15.9958 45.8895 13.552 45.7791C11.1145 45.6687 9.44784 45.2791 7.9895 44.7124C6.46017 44.1373 5.07454 43.2359 3.92909 42.0708C2.76321 40.9263 1.86099 39.5413 1.28534 38.0124C0.720752 36.5541 0.333252 34.8874 0.220752 32.4499C0.108252 30.002 0.083252 29.2228 0.083252 22.9999C0.083252 16.7749 0.110335 15.9958 0.220752 13.5541C0.331169 11.1124 0.720752 9.44575 1.28534 7.98742C1.86184 6.45842 2.76475 5.07349 3.93117 3.92909C5.075 2.76346 6.45924 1.86126 7.98742 1.28534C9.44575 0.720752 11.1124 0.333252 13.5499 0.220752H13.552ZM32.2603 4.34575C29.8437 4.23534 29.1187 4.21242 22.9999 4.21242C16.8812 4.21242 16.1562 4.23534 13.7395 4.34575C11.5041 4.44784 10.2916 4.82075 9.48325 5.13534C8.4145 5.552 7.64992 6.04575 6.84784 6.84784C6.08751 7.58753 5.50238 8.48801 5.13534 9.48325C4.82075 10.2916 4.44784 11.5041 4.34575 13.7395C4.23534 16.1562 4.21242 16.8812 4.21242 22.9999C4.21242 29.1187 4.23534 29.8437 4.34575 32.2603C4.44784 34.4958 4.82075 35.7083 5.13534 36.5166C5.502 37.5103 6.08742 38.4124 6.84784 39.152C7.58742 39.9124 8.4895 40.4978 9.48325 40.8645C10.2916 41.1791 11.5041 41.552 13.7395 41.6541C16.1562 41.7645 16.8791 41.7874 22.9999 41.7874C29.1208 41.7874 29.8437 41.7645 32.2603 41.6541C34.4958 41.552 35.7083 41.1791 36.5166 40.8645C37.5853 40.4478 38.3499 39.9541 39.152 39.152C39.9124 38.4124 40.4978 37.5103 40.8645 36.5166C41.1791 35.7083 41.552 34.4958 41.6541 32.2603C41.7645 29.8437 41.7874 29.1187 41.7874 22.9999C41.7874 16.8812 41.7645 16.1562 41.6541 13.7395C41.552 11.5041 41.1791 10.2916 40.8645 9.48325C40.4478 8.4145 39.9541 7.64992 39.152 6.84784C38.4123 6.08757 37.5118 5.50244 36.5166 5.13534C35.7083 4.82075 34.4958 4.44784 32.2603 4.34575ZM20.0728 30.0645C21.7075 30.745 23.5278 30.8368 25.2227 30.3243C26.9176 29.8119 28.382 28.7268 29.3658 27.2546C30.3496 25.7824 30.7917 24.0142 30.6167 22.2522C30.4417 20.4902 29.6603 18.8436 28.4062 17.5937C27.6067 16.7947 26.6399 16.1829 25.5756 15.8023C24.5113 15.4218 23.3758 15.2819 22.251 15.3929C21.1261 15.5038 20.0398 15.8628 19.0703 16.4439C18.1009 17.0251 17.2723 17.814 16.6443 18.7538C16.0163 19.6936 15.6045 20.7609 15.4385 21.879C15.2725 22.9971 15.3565 24.138 15.6844 25.2197C16.0123 26.3015 16.5759 27.297 17.3348 28.1348C18.0936 28.9725 19.0287 29.6316 20.0728 30.0645ZM14.6708 14.6708C15.7646 13.577 17.0631 12.7093 18.4922 12.1173C19.9213 11.5254 21.4531 11.2207 22.9999 11.2207C24.5468 11.2207 26.0785 11.5254 27.5076 12.1173C28.9368 12.7093 30.2353 13.577 31.3291 14.6708C32.4229 15.7646 33.2905 17.0631 33.8825 18.4922C34.4745 19.9213 34.7791 21.4531 34.7791 22.9999C34.7791 24.5468 34.4745 26.0785 33.8825 27.5076C33.2905 28.9368 32.4229 30.2353 31.3291 31.3291C29.1201 33.5381 26.124 34.7791 22.9999 34.7791C19.8759 34.7791 16.8798 33.5381 14.6708 31.3291C12.4617 29.1201 11.2207 26.124 11.2207 22.9999C11.2207 19.8759 12.4617 16.8798 14.6708 14.6708ZM37.3916 12.9749C37.6626 12.7192 37.8796 12.4118 38.0297 12.0707C38.1798 11.7296 38.2599 11.3619 38.2654 10.9894C38.2708 10.6168 38.2014 10.2469 38.0613 9.90161C37.9213 9.55632 37.7133 9.24265 37.4498 8.97917C37.1864 8.71568 36.8727 8.50775 36.5274 8.36766C36.1821 8.22758 35.8122 8.1582 35.4396 8.16363C35.0671 8.16907 34.6994 8.2492 34.3583 8.39929C34.0173 8.54938 33.7098 8.76637 33.4541 9.03742C32.9568 9.56456 32.6846 10.2648 32.6951 10.9894C32.7057 11.714 32.9982 12.4059 33.5107 12.9183C34.0231 13.4308 34.715 13.7233 35.4396 13.7339C36.1642 13.7444 36.8644 13.4722 37.3916 12.9749Z" fill="black"/>
</svg>
