<svg width="142" height="141" viewBox="0 0 142 141" fill="none" xmlns="http://www.w3.org/2000/svg">
<path d="M136.804 15.0416L107.621 0.87497C106.54 0.434828 105.388 0.194818 104.221 0.166638H103.654C101.813 0.156228 100.021 0.753817 98.5542 1.86664L97.5625 2.71664L41.7458 53.6458L17.45 35.5833C16.3555 34.7461 15.0017 34.3199 13.625 34.3791C12.2763 34.3638 10.959 34.7863 9.87081 35.5833L2.07914 42.6666C1.46823 43.2068 0.981106 43.8725 0.651041 44.6182C0.320977 45.3639 0.155749 46.1721 0.166643 46.9875C0.163712 47.8121 0.332208 48.6283 0.661439 49.3843C0.990671 50.1403 1.47345 50.8196 2.07914 51.3791L23.3291 70.575L2.07914 89.8416C1.48062 90.3985 1.00327 91.0727 0.67686 91.8222C0.350452 92.5717 0.181993 93.3804 0.181993 94.1979C0.181993 95.0154 0.350452 95.8241 0.67686 96.5736C1.00327 97.3231 1.48062 97.9973 2.07914 98.5541L9.87081 105.637C11.0457 106.665 12.5601 107.22 14.1208 107.196C15.3196 107.106 16.4709 106.689 17.45 105.992L41.7458 87.5041L97.5625 138.433C98.9906 139.905 100.903 140.81 102.946 140.983H104.15C105.361 141.001 106.556 140.709 107.621 140.133L136.804 125.967C138.281 125.26 139.533 124.157 140.42 122.782C141.308 121.406 141.797 119.812 141.833 118.175V23.0458C141.829 21.3746 141.355 19.7383 140.465 18.3232C139.576 16.9081 138.308 15.7711 136.804 15.0416ZM106.417 102.662L63.9166 70.575L106.417 38.4875V102.662Z" fill="black"/>
</svg>
