<svg width="46" height="46" viewBox="0 0 46 46" fill="none" xmlns="http://www.w3.org/2000/svg">
<path fill-rule="evenodd" clip-rule="evenodd" d="M0.0832525 3.91242C0.0832525 2.89687 0.486681 1.9229 1.20479 1.20479C1.9229 0.486686 2.89686 0.0832571 3.91242 0.0832571H42.0833C42.5865 0.0824351 43.085 0.180888 43.5502 0.372979C44.0154 0.565071 44.4381 0.847027 44.7942 1.20271C45.1503 1.55839 45.4327 1.98081 45.6253 2.44578C45.8179 2.91075 45.9169 3.40914 45.9166 3.91242V42.0833C45.9171 42.5866 45.8184 43.0852 45.6261 43.5504C45.4338 44.0156 45.1516 44.4383 44.7958 44.7943C44.4399 45.1504 44.0174 45.4327 43.5523 45.6253C43.0872 45.8179 42.5887 45.9169 42.0853 45.9166H3.91242C3.40939 45.9166 2.91129 45.8175 2.44658 45.6249C1.98187 45.4323 1.55965 45.1501 1.20405 44.7943C0.848454 44.4385 0.566443 44.0162 0.374132 43.5513C0.181821 43.0865 0.0829788 42.5884 0.0832525 42.0853V3.91242ZM18.2249 17.5583H24.4312V20.6749C25.327 18.8833 27.6187 17.2708 31.0624 17.2708C37.6645 17.2708 39.2291 20.8395 39.2291 27.3874V39.5166H32.5478V28.8791C32.5478 25.1499 31.652 23.0458 29.377 23.0458C26.2208 23.0458 24.9083 25.3145 24.9083 28.8791V39.5166H18.2249V17.5583ZM6.76659 39.2312H13.4499V17.2708H6.76659V39.2291V39.2312ZM14.4062 10.1083C14.4188 10.6805 14.3169 11.2495 14.1067 11.7818C13.8964 12.3142 13.5819 12.7992 13.1817 13.2083C12.7814 13.6175 12.3035 13.9426 11.7759 14.1645C11.2483 14.3865 10.6817 14.5008 10.1093 14.5008C9.53692 14.5008 8.97031 14.3865 8.44272 14.1645C7.91513 13.9426 7.43719 13.6175 7.03694 13.2083C6.63669 12.7992 6.3222 12.3142 6.11192 11.7818C5.90164 11.2495 5.79982 10.6805 5.81242 10.1083C5.83715 8.98504 6.30072 7.91615 7.10385 7.13052C7.90697 6.34488 8.9858 5.90496 10.1093 5.90496C11.2328 5.90496 12.3116 6.34488 13.1147 7.13052C13.9179 7.91615 14.3814 8.98504 14.4062 10.1083V10.1083Z" fill="black"/>
</svg>
